<mxfile host="app.diagrams.net" modified="2023-09-21T09:03:08.120Z" agent="Mozilla/5.0 (Macintosh; Intel Mac OS X 10_15_7) AppleWebKit/537.36 (KHTML, like Gecko) Chrome/116.0.0.0 Safari/537.36" etag="uK725kJpVHdO06Rj84SJ" version="21.8.0" type="github">
  <diagram name="Page-1" id="wPlq_lcVkm64fLIbKGpa">
    <mxGraphModel dx="1782" dy="607" grid="1" gridSize="10" guides="1" tooltips="1" connect="1" arrows="1" fold="1" page="1" pageScale="1" pageWidth="827" pageHeight="1169" math="0" shadow="0">
      <root>
        <mxCell id="0" />
        <mxCell id="1" parent="0" />
        <mxCell id="HjZwm3_lMUPSO9mRjGWS-148" style="edgeStyle=orthogonalEdgeStyle;rounded=0;orthogonalLoop=1;jettySize=auto;html=1;exitX=0.5;exitY=1;exitDx=0;exitDy=0;entryX=0.528;entryY=-0.012;entryDx=0;entryDy=0;entryPerimeter=0;" parent="1" source="HjZwm3_lMUPSO9mRjGWS-38" target="HjZwm3_lMUPSO9mRjGWS-56" edge="1">
          <mxGeometry relative="1" as="geometry">
            <Array as="points">
              <mxPoint x="-543" y="134" />
              <mxPoint x="-543" y="180" />
              <mxPoint x="-624" y="180" />
            </Array>
          </mxGeometry>
        </mxCell>
        <mxCell id="HjZwm3_lMUPSO9mRjGWS-153" style="edgeStyle=orthogonalEdgeStyle;rounded=0;orthogonalLoop=1;jettySize=auto;html=1;entryX=0.437;entryY=0.025;entryDx=0;entryDy=0;entryPerimeter=0;" parent="1" source="HjZwm3_lMUPSO9mRjGWS-38" target="HjZwm3_lMUPSO9mRjGWS-89" edge="1">
          <mxGeometry relative="1" as="geometry">
            <Array as="points">
              <mxPoint x="-488" y="180" />
              <mxPoint x="-264" y="180" />
            </Array>
          </mxGeometry>
        </mxCell>
        <mxCell id="HjZwm3_lMUPSO9mRjGWS-38" value="user" style="shape=table;startSize=30;container=1;collapsible=0;childLayout=tableLayout;strokeColor=#82b366;fontSize=16;fillColor=#d5e8d4;" parent="1" vertex="1">
          <mxGeometry x="-703" y="50" width="430" height="84" as="geometry" />
        </mxCell>
        <mxCell id="HjZwm3_lMUPSO9mRjGWS-39" value="" style="shape=tableRow;horizontal=0;startSize=0;swimlaneHead=0;swimlaneBody=0;strokeColor=inherit;top=0;left=0;bottom=0;right=0;collapsible=0;dropTarget=0;fillColor=none;points=[[0,0.5],[1,0.5]];portConstraint=eastwest;fontSize=16;" parent="HjZwm3_lMUPSO9mRjGWS-38" vertex="1">
          <mxGeometry y="30" width="430" height="29" as="geometry" />
        </mxCell>
        <mxCell id="HjZwm3_lMUPSO9mRjGWS-40" value="id" style="shape=partialRectangle;html=1;whiteSpace=wrap;connectable=0;strokeColor=inherit;overflow=hidden;fillColor=none;top=0;left=0;bottom=0;right=0;pointerEvents=1;fontSize=16;" parent="HjZwm3_lMUPSO9mRjGWS-39" vertex="1">
          <mxGeometry width="40" height="29" as="geometry">
            <mxRectangle width="40" height="29" as="alternateBounds" />
          </mxGeometry>
        </mxCell>
        <mxCell id="HjZwm3_lMUPSO9mRjGWS-41" value="&lt;div&gt;user (login, uid, rio)&lt;/div&gt;" style="shape=partialRectangle;html=1;whiteSpace=wrap;connectable=0;strokeColor=inherit;overflow=hidden;fillColor=none;top=0;left=0;bottom=0;right=0;pointerEvents=1;fontSize=16;" parent="HjZwm3_lMUPSO9mRjGWS-39" vertex="1">
          <mxGeometry x="40" width="150" height="29" as="geometry">
            <mxRectangle width="150" height="29" as="alternateBounds" />
          </mxGeometry>
        </mxCell>
        <mxCell id="HjZwm3_lMUPSO9mRjGWS-42" value="is_service_account" style="shape=partialRectangle;html=1;whiteSpace=wrap;connectable=0;strokeColor=inherit;overflow=hidden;fillColor=none;top=0;left=0;bottom=0;right=0;pointerEvents=1;fontSize=16;" parent="HjZwm3_lMUPSO9mRjGWS-39" vertex="1">
          <mxGeometry x="190" width="170" height="29" as="geometry">
            <mxRectangle width="170" height="29" as="alternateBounds" />
          </mxGeometry>
        </mxCell>
        <mxCell id="HjZwm3_lMUPSO9mRjGWS-52" value="....." style="shape=partialRectangle;html=1;whiteSpace=wrap;connectable=0;strokeColor=inherit;overflow=hidden;fillColor=none;top=0;left=0;bottom=0;right=0;pointerEvents=1;fontSize=16;" parent="HjZwm3_lMUPSO9mRjGWS-39" vertex="1">
          <mxGeometry x="360" width="70" height="29" as="geometry">
            <mxRectangle width="70" height="29" as="alternateBounds" />
          </mxGeometry>
        </mxCell>
        <mxCell id="HjZwm3_lMUPSO9mRjGWS-43" value="" style="shape=tableRow;horizontal=0;startSize=0;swimlaneHead=0;swimlaneBody=0;strokeColor=inherit;top=0;left=0;bottom=0;right=0;collapsible=0;dropTarget=0;fillColor=none;points=[[0,0.5],[1,0.5]];portConstraint=eastwest;fontSize=16;" parent="HjZwm3_lMUPSO9mRjGWS-38" vertex="1">
          <mxGeometry y="59" width="430" height="25" as="geometry" />
        </mxCell>
        <mxCell id="HjZwm3_lMUPSO9mRjGWS-44" value="" style="shape=partialRectangle;html=1;whiteSpace=wrap;connectable=0;strokeColor=inherit;overflow=hidden;fillColor=none;top=0;left=0;bottom=0;right=0;pointerEvents=1;fontSize=16;" parent="HjZwm3_lMUPSO9mRjGWS-43" vertex="1">
          <mxGeometry width="40" height="25" as="geometry">
            <mxRectangle width="40" height="25" as="alternateBounds" />
          </mxGeometry>
        </mxCell>
        <mxCell id="HjZwm3_lMUPSO9mRjGWS-45" value="" style="shape=partialRectangle;html=1;whiteSpace=wrap;connectable=0;strokeColor=inherit;overflow=hidden;fillColor=none;top=0;left=0;bottom=0;right=0;pointerEvents=1;fontSize=16;" parent="HjZwm3_lMUPSO9mRjGWS-43" vertex="1">
          <mxGeometry x="40" width="150" height="25" as="geometry">
            <mxRectangle width="150" height="25" as="alternateBounds" />
          </mxGeometry>
        </mxCell>
        <mxCell id="HjZwm3_lMUPSO9mRjGWS-46" value="" style="shape=partialRectangle;html=1;whiteSpace=wrap;connectable=0;strokeColor=inherit;overflow=hidden;fillColor=none;top=0;left=0;bottom=0;right=0;pointerEvents=1;fontSize=16;" parent="HjZwm3_lMUPSO9mRjGWS-43" vertex="1">
          <mxGeometry x="190" width="170" height="25" as="geometry">
            <mxRectangle width="170" height="25" as="alternateBounds" />
          </mxGeometry>
        </mxCell>
        <mxCell id="HjZwm3_lMUPSO9mRjGWS-53" style="shape=partialRectangle;html=1;whiteSpace=wrap;connectable=0;strokeColor=inherit;overflow=hidden;fillColor=none;top=0;left=0;bottom=0;right=0;pointerEvents=1;fontSize=16;" parent="HjZwm3_lMUPSO9mRjGWS-43" vertex="1">
          <mxGeometry x="360" width="70" height="25" as="geometry">
            <mxRectangle width="70" height="25" as="alternateBounds" />
          </mxGeometry>
        </mxCell>
        <mxCell id="HjZwm3_lMUPSO9mRjGWS-56" value="(project_role) -&gt; user_project_role" style="shape=table;startSize=30;container=1;collapsible=0;childLayout=tableLayout;strokeColor=#d79b00;fontSize=16;fillColor=#ffe6cc;" parent="1" vertex="1">
          <mxGeometry x="-793" y="210" width="320" height="80" as="geometry" />
        </mxCell>
        <mxCell id="HjZwm3_lMUPSO9mRjGWS-57" value="" style="shape=tableRow;horizontal=0;startSize=0;swimlaneHead=0;swimlaneBody=0;strokeColor=inherit;top=0;left=0;bottom=0;right=0;collapsible=0;dropTarget=0;fillColor=none;points=[[0,0.5],[1,0.5]];portConstraint=eastwest;fontSize=16;" parent="HjZwm3_lMUPSO9mRjGWS-56" vertex="1">
          <mxGeometry y="30" width="320" height="30" as="geometry" />
        </mxCell>
        <mxCell id="HjZwm3_lMUPSO9mRjGWS-58" value="id" style="shape=partialRectangle;html=1;whiteSpace=wrap;connectable=0;strokeColor=inherit;overflow=hidden;fillColor=none;top=0;left=0;bottom=0;right=0;pointerEvents=1;fontSize=16;" parent="HjZwm3_lMUPSO9mRjGWS-57" vertex="1">
          <mxGeometry width="27" height="30" as="geometry">
            <mxRectangle width="27" height="30" as="alternateBounds" />
          </mxGeometry>
        </mxCell>
        <mxCell id="HjZwm3_lMUPSO9mRjGWS-59" value="user_id" style="shape=partialRectangle;html=1;whiteSpace=wrap;connectable=0;strokeColor=inherit;overflow=hidden;fillColor=none;top=0;left=0;bottom=0;right=0;pointerEvents=1;fontSize=16;" parent="HjZwm3_lMUPSO9mRjGWS-57" vertex="1">
          <mxGeometry x="27" width="89" height="30" as="geometry">
            <mxRectangle width="89" height="30" as="alternateBounds" />
          </mxGeometry>
        </mxCell>
        <mxCell id="HjZwm3_lMUPSO9mRjGWS-60" value="project_id" style="shape=partialRectangle;html=1;whiteSpace=wrap;connectable=0;strokeColor=inherit;overflow=hidden;fillColor=none;top=0;left=0;bottom=0;right=0;pointerEvents=1;fontSize=16;" parent="HjZwm3_lMUPSO9mRjGWS-57" vertex="1">
          <mxGeometry x="116" width="80" height="30" as="geometry">
            <mxRectangle width="80" height="30" as="alternateBounds" />
          </mxGeometry>
        </mxCell>
        <mxCell id="HjZwm3_lMUPSO9mRjGWS-82" value="role_id" style="shape=partialRectangle;html=1;whiteSpace=wrap;connectable=0;strokeColor=inherit;overflow=hidden;fillColor=none;top=0;left=0;bottom=0;right=0;pointerEvents=1;fontSize=16;" parent="HjZwm3_lMUPSO9mRjGWS-57" vertex="1">
          <mxGeometry x="196" width="62" height="30" as="geometry">
            <mxRectangle width="62" height="30" as="alternateBounds" />
          </mxGeometry>
        </mxCell>
        <mxCell id="HjZwm3_lMUPSO9mRjGWS-109" value="......" style="shape=partialRectangle;html=1;whiteSpace=wrap;connectable=0;strokeColor=inherit;overflow=hidden;fillColor=none;top=0;left=0;bottom=0;right=0;pointerEvents=1;fontSize=16;" parent="HjZwm3_lMUPSO9mRjGWS-57" vertex="1">
          <mxGeometry x="258" width="62" height="30" as="geometry">
            <mxRectangle width="62" height="30" as="alternateBounds" />
          </mxGeometry>
        </mxCell>
        <mxCell id="HjZwm3_lMUPSO9mRjGWS-61" value="" style="shape=tableRow;horizontal=0;startSize=0;swimlaneHead=0;swimlaneBody=0;strokeColor=inherit;top=0;left=0;bottom=0;right=0;collapsible=0;dropTarget=0;fillColor=none;points=[[0,0.5],[1,0.5]];portConstraint=eastwest;fontSize=16;" parent="HjZwm3_lMUPSO9mRjGWS-56" vertex="1">
          <mxGeometry y="60" width="320" height="20" as="geometry" />
        </mxCell>
        <mxCell id="HjZwm3_lMUPSO9mRjGWS-62" value="" style="shape=partialRectangle;html=1;whiteSpace=wrap;connectable=0;strokeColor=inherit;overflow=hidden;fillColor=none;top=0;left=0;bottom=0;right=0;pointerEvents=1;fontSize=16;" parent="HjZwm3_lMUPSO9mRjGWS-61" vertex="1">
          <mxGeometry width="27" height="20" as="geometry">
            <mxRectangle width="27" height="20" as="alternateBounds" />
          </mxGeometry>
        </mxCell>
        <mxCell id="HjZwm3_lMUPSO9mRjGWS-63" value="" style="shape=partialRectangle;html=1;whiteSpace=wrap;connectable=0;strokeColor=inherit;overflow=hidden;fillColor=none;top=0;left=0;bottom=0;right=0;pointerEvents=1;fontSize=16;" parent="HjZwm3_lMUPSO9mRjGWS-61" vertex="1">
          <mxGeometry x="27" width="89" height="20" as="geometry">
            <mxRectangle width="89" height="20" as="alternateBounds" />
          </mxGeometry>
        </mxCell>
        <mxCell id="HjZwm3_lMUPSO9mRjGWS-64" value="" style="shape=partialRectangle;html=1;whiteSpace=wrap;connectable=0;strokeColor=inherit;overflow=hidden;fillColor=none;top=0;left=0;bottom=0;right=0;pointerEvents=1;fontSize=16;" parent="HjZwm3_lMUPSO9mRjGWS-61" vertex="1">
          <mxGeometry x="116" width="80" height="20" as="geometry">
            <mxRectangle width="80" height="20" as="alternateBounds" />
          </mxGeometry>
        </mxCell>
        <mxCell id="HjZwm3_lMUPSO9mRjGWS-83" style="shape=partialRectangle;html=1;whiteSpace=wrap;connectable=0;strokeColor=inherit;overflow=hidden;fillColor=none;top=0;left=0;bottom=0;right=0;pointerEvents=1;fontSize=16;" parent="HjZwm3_lMUPSO9mRjGWS-61" vertex="1">
          <mxGeometry x="196" width="62" height="20" as="geometry">
            <mxRectangle width="62" height="20" as="alternateBounds" />
          </mxGeometry>
        </mxCell>
        <mxCell id="HjZwm3_lMUPSO9mRjGWS-110" style="shape=partialRectangle;html=1;whiteSpace=wrap;connectable=0;strokeColor=inherit;overflow=hidden;fillColor=none;top=0;left=0;bottom=0;right=0;pointerEvents=1;fontSize=16;" parent="HjZwm3_lMUPSO9mRjGWS-61" vertex="1">
          <mxGeometry x="258" width="62" height="20" as="geometry">
            <mxRectangle width="62" height="20" as="alternateBounds" />
          </mxGeometry>
        </mxCell>
        <mxCell id="HjZwm3_lMUPSO9mRjGWS-89" value="(resource_role) -&gt; user_resource_role" style="shape=table;startSize=30;container=1;collapsible=0;childLayout=tableLayout;strokeColor=#d79b00;fontSize=16;fillColor=#ffe6cc;" parent="1" vertex="1">
          <mxGeometry x="-443" y="210" width="410" height="80" as="geometry" />
        </mxCell>
        <mxCell id="HjZwm3_lMUPSO9mRjGWS-90" value="" style="shape=tableRow;horizontal=0;startSize=0;swimlaneHead=0;swimlaneBody=0;strokeColor=inherit;top=0;left=0;bottom=0;right=0;collapsible=0;dropTarget=0;fillColor=none;points=[[0,0.5],[1,0.5]];portConstraint=eastwest;fontSize=16;" parent="HjZwm3_lMUPSO9mRjGWS-89" vertex="1">
          <mxGeometry y="30" width="410" height="30" as="geometry" />
        </mxCell>
        <mxCell id="HjZwm3_lMUPSO9mRjGWS-91" value="id" style="shape=partialRectangle;html=1;whiteSpace=wrap;connectable=0;strokeColor=inherit;overflow=hidden;fillColor=none;top=0;left=0;bottom=0;right=0;pointerEvents=1;fontSize=16;" parent="HjZwm3_lMUPSO9mRjGWS-90" vertex="1">
          <mxGeometry width="30" height="30" as="geometry">
            <mxRectangle width="30" height="30" as="alternateBounds" />
          </mxGeometry>
        </mxCell>
        <mxCell id="HjZwm3_lMUPSO9mRjGWS-92" value="user_id" style="shape=partialRectangle;html=1;whiteSpace=wrap;connectable=0;strokeColor=inherit;overflow=hidden;fillColor=none;top=0;left=0;bottom=0;right=0;pointerEvents=1;fontSize=16;" parent="HjZwm3_lMUPSO9mRjGWS-90" vertex="1">
          <mxGeometry x="30" width="70" height="30" as="geometry">
            <mxRectangle width="70" height="30" as="alternateBounds" />
          </mxGeometry>
        </mxCell>
        <mxCell id="HjZwm3_lMUPSO9mRjGWS-93" value="project_id" style="shape=partialRectangle;html=1;whiteSpace=wrap;connectable=0;strokeColor=inherit;overflow=hidden;fillColor=none;top=0;left=0;bottom=0;right=0;pointerEvents=1;fontSize=16;" parent="HjZwm3_lMUPSO9mRjGWS-90" vertex="1">
          <mxGeometry x="100" width="90" height="30" as="geometry">
            <mxRectangle width="90" height="30" as="alternateBounds" />
          </mxGeometry>
        </mxCell>
        <mxCell id="HjZwm3_lMUPSO9mRjGWS-94" value="resource_id" style="shape=partialRectangle;html=1;whiteSpace=wrap;connectable=0;strokeColor=inherit;overflow=hidden;fillColor=none;top=0;left=0;bottom=0;right=0;pointerEvents=1;fontSize=16;" parent="HjZwm3_lMUPSO9mRjGWS-90" vertex="1">
          <mxGeometry x="190" width="100" height="30" as="geometry">
            <mxRectangle width="100" height="30" as="alternateBounds" />
          </mxGeometry>
        </mxCell>
        <mxCell id="HjZwm3_lMUPSO9mRjGWS-106" value="role_id" style="shape=partialRectangle;html=1;whiteSpace=wrap;connectable=0;strokeColor=inherit;overflow=hidden;fillColor=none;top=0;left=0;bottom=0;right=0;pointerEvents=1;fontSize=16;" parent="HjZwm3_lMUPSO9mRjGWS-90" vertex="1">
          <mxGeometry x="290" width="70" height="30" as="geometry">
            <mxRectangle width="70" height="30" as="alternateBounds" />
          </mxGeometry>
        </mxCell>
        <mxCell id="HjZwm3_lMUPSO9mRjGWS-112" value="....." style="shape=partialRectangle;html=1;whiteSpace=wrap;connectable=0;strokeColor=inherit;overflow=hidden;fillColor=none;top=0;left=0;bottom=0;right=0;pointerEvents=1;fontSize=16;" parent="HjZwm3_lMUPSO9mRjGWS-90" vertex="1">
          <mxGeometry x="360" width="50" height="30" as="geometry">
            <mxRectangle width="50" height="30" as="alternateBounds" />
          </mxGeometry>
        </mxCell>
        <mxCell id="HjZwm3_lMUPSO9mRjGWS-95" value="" style="shape=tableRow;horizontal=0;startSize=0;swimlaneHead=0;swimlaneBody=0;strokeColor=inherit;top=0;left=0;bottom=0;right=0;collapsible=0;dropTarget=0;fillColor=none;points=[[0,0.5],[1,0.5]];portConstraint=eastwest;fontSize=16;" parent="HjZwm3_lMUPSO9mRjGWS-89" vertex="1">
          <mxGeometry y="60" width="410" height="20" as="geometry" />
        </mxCell>
        <mxCell id="HjZwm3_lMUPSO9mRjGWS-96" value="" style="shape=partialRectangle;html=1;whiteSpace=wrap;connectable=0;strokeColor=inherit;overflow=hidden;fillColor=none;top=0;left=0;bottom=0;right=0;pointerEvents=1;fontSize=16;" parent="HjZwm3_lMUPSO9mRjGWS-95" vertex="1">
          <mxGeometry width="30" height="20" as="geometry">
            <mxRectangle width="30" height="20" as="alternateBounds" />
          </mxGeometry>
        </mxCell>
        <mxCell id="HjZwm3_lMUPSO9mRjGWS-97" value="" style="shape=partialRectangle;html=1;whiteSpace=wrap;connectable=0;strokeColor=inherit;overflow=hidden;fillColor=none;top=0;left=0;bottom=0;right=0;pointerEvents=1;fontSize=16;" parent="HjZwm3_lMUPSO9mRjGWS-95" vertex="1">
          <mxGeometry x="30" width="70" height="20" as="geometry">
            <mxRectangle width="70" height="20" as="alternateBounds" />
          </mxGeometry>
        </mxCell>
        <mxCell id="HjZwm3_lMUPSO9mRjGWS-98" value="" style="shape=partialRectangle;html=1;whiteSpace=wrap;connectable=0;strokeColor=inherit;overflow=hidden;fillColor=none;top=0;left=0;bottom=0;right=0;pointerEvents=1;fontSize=16;" parent="HjZwm3_lMUPSO9mRjGWS-95" vertex="1">
          <mxGeometry x="100" width="90" height="20" as="geometry">
            <mxRectangle width="90" height="20" as="alternateBounds" />
          </mxGeometry>
        </mxCell>
        <mxCell id="HjZwm3_lMUPSO9mRjGWS-99" style="shape=partialRectangle;html=1;whiteSpace=wrap;connectable=0;strokeColor=inherit;overflow=hidden;fillColor=none;top=0;left=0;bottom=0;right=0;pointerEvents=1;fontSize=16;" parent="HjZwm3_lMUPSO9mRjGWS-95" vertex="1">
          <mxGeometry x="190" width="100" height="20" as="geometry">
            <mxRectangle width="100" height="20" as="alternateBounds" />
          </mxGeometry>
        </mxCell>
        <mxCell id="HjZwm3_lMUPSO9mRjGWS-107" style="shape=partialRectangle;html=1;whiteSpace=wrap;connectable=0;strokeColor=inherit;overflow=hidden;fillColor=none;top=0;left=0;bottom=0;right=0;pointerEvents=1;fontSize=16;" parent="HjZwm3_lMUPSO9mRjGWS-95" vertex="1">
          <mxGeometry x="290" width="70" height="20" as="geometry">
            <mxRectangle width="70" height="20" as="alternateBounds" />
          </mxGeometry>
        </mxCell>
        <mxCell id="HjZwm3_lMUPSO9mRjGWS-113" style="shape=partialRectangle;html=1;whiteSpace=wrap;connectable=0;strokeColor=inherit;overflow=hidden;fillColor=none;top=0;left=0;bottom=0;right=0;pointerEvents=1;fontSize=16;" parent="HjZwm3_lMUPSO9mRjGWS-95" vertex="1">
          <mxGeometry x="360" width="50" height="20" as="geometry">
            <mxRectangle width="50" height="20" as="alternateBounds" />
          </mxGeometry>
        </mxCell>
        <mxCell id="HjZwm3_lMUPSO9mRjGWS-149" style="edgeStyle=orthogonalEdgeStyle;rounded=0;orthogonalLoop=1;jettySize=auto;html=1;exitX=0.5;exitY=0;exitDx=0;exitDy=0;entryX=0.484;entryY=1.05;entryDx=0;entryDy=0;entryPerimeter=0;" parent="1" source="HjZwm3_lMUPSO9mRjGWS-114" target="HjZwm3_lMUPSO9mRjGWS-61" edge="1">
          <mxGeometry relative="1" as="geometry">
            <mxPoint x="-638" y="300" as="targetPoint" />
          </mxGeometry>
        </mxCell>
        <mxCell id="HjZwm3_lMUPSO9mRjGWS-114" value="project" style="shape=table;startSize=30;container=1;collapsible=0;childLayout=tableLayout;strokeColor=default;fontSize=16;" parent="1" vertex="1">
          <mxGeometry x="-763" y="361" width="250" height="79" as="geometry" />
        </mxCell>
        <mxCell id="HjZwm3_lMUPSO9mRjGWS-115" value="" style="shape=tableRow;horizontal=0;startSize=0;swimlaneHead=0;swimlaneBody=0;strokeColor=inherit;top=0;left=0;bottom=0;right=0;collapsible=0;dropTarget=0;fillColor=none;points=[[0,0.5],[1,0.5]];portConstraint=eastwest;fontSize=16;" parent="HjZwm3_lMUPSO9mRjGWS-114" vertex="1">
          <mxGeometry y="30" width="250" height="29" as="geometry" />
        </mxCell>
        <mxCell id="HjZwm3_lMUPSO9mRjGWS-116" value="id" style="shape=partialRectangle;html=1;whiteSpace=wrap;connectable=0;strokeColor=inherit;overflow=hidden;fillColor=none;top=0;left=0;bottom=0;right=0;pointerEvents=1;fontSize=16;" parent="HjZwm3_lMUPSO9mRjGWS-115" vertex="1">
          <mxGeometry width="40" height="29" as="geometry">
            <mxRectangle width="40" height="29" as="alternateBounds" />
          </mxGeometry>
        </mxCell>
        <mxCell id="HjZwm3_lMUPSO9mRjGWS-117" value="&lt;div&gt;name&lt;/div&gt;" style="shape=partialRectangle;html=1;whiteSpace=wrap;connectable=0;strokeColor=inherit;overflow=hidden;fillColor=none;top=0;left=0;bottom=0;right=0;pointerEvents=1;fontSize=16;" parent="HjZwm3_lMUPSO9mRjGWS-115" vertex="1">
          <mxGeometry x="40" width="60" height="29" as="geometry">
            <mxRectangle width="60" height="29" as="alternateBounds" />
          </mxGeometry>
        </mxCell>
        <mxCell id="HjZwm3_lMUPSO9mRjGWS-118" value="label" style="shape=partialRectangle;html=1;whiteSpace=wrap;connectable=0;strokeColor=inherit;overflow=hidden;fillColor=none;top=0;left=0;bottom=0;right=0;pointerEvents=1;fontSize=16;" parent="HjZwm3_lMUPSO9mRjGWS-115" vertex="1">
          <mxGeometry x="100" width="60" height="29" as="geometry">
            <mxRectangle width="60" height="29" as="alternateBounds" />
          </mxGeometry>
        </mxCell>
        <mxCell id="HjZwm3_lMUPSO9mRjGWS-119" value="....." style="shape=partialRectangle;html=1;whiteSpace=wrap;connectable=0;strokeColor=inherit;overflow=hidden;fillColor=none;top=0;left=0;bottom=0;right=0;pointerEvents=1;fontSize=16;" parent="HjZwm3_lMUPSO9mRjGWS-115" vertex="1">
          <mxGeometry x="160" width="90" height="29" as="geometry">
            <mxRectangle width="90" height="29" as="alternateBounds" />
          </mxGeometry>
        </mxCell>
        <mxCell id="HjZwm3_lMUPSO9mRjGWS-120" value="" style="shape=tableRow;horizontal=0;startSize=0;swimlaneHead=0;swimlaneBody=0;strokeColor=inherit;top=0;left=0;bottom=0;right=0;collapsible=0;dropTarget=0;fillColor=none;points=[[0,0.5],[1,0.5]];portConstraint=eastwest;fontSize=16;" parent="HjZwm3_lMUPSO9mRjGWS-114" vertex="1">
          <mxGeometry y="59" width="250" height="20" as="geometry" />
        </mxCell>
        <mxCell id="HjZwm3_lMUPSO9mRjGWS-121" value="" style="shape=partialRectangle;html=1;whiteSpace=wrap;connectable=0;strokeColor=inherit;overflow=hidden;fillColor=none;top=0;left=0;bottom=0;right=0;pointerEvents=1;fontSize=16;" parent="HjZwm3_lMUPSO9mRjGWS-120" vertex="1">
          <mxGeometry width="40" height="20" as="geometry">
            <mxRectangle width="40" height="20" as="alternateBounds" />
          </mxGeometry>
        </mxCell>
        <mxCell id="HjZwm3_lMUPSO9mRjGWS-122" value="" style="shape=partialRectangle;html=1;whiteSpace=wrap;connectable=0;strokeColor=inherit;overflow=hidden;fillColor=none;top=0;left=0;bottom=0;right=0;pointerEvents=1;fontSize=16;" parent="HjZwm3_lMUPSO9mRjGWS-120" vertex="1">
          <mxGeometry x="40" width="60" height="20" as="geometry">
            <mxRectangle width="60" height="20" as="alternateBounds" />
          </mxGeometry>
        </mxCell>
        <mxCell id="HjZwm3_lMUPSO9mRjGWS-123" value="" style="shape=partialRectangle;html=1;whiteSpace=wrap;connectable=0;strokeColor=inherit;overflow=hidden;fillColor=none;top=0;left=0;bottom=0;right=0;pointerEvents=1;fontSize=16;" parent="HjZwm3_lMUPSO9mRjGWS-120" vertex="1">
          <mxGeometry x="100" width="60" height="20" as="geometry">
            <mxRectangle width="60" height="20" as="alternateBounds" />
          </mxGeometry>
        </mxCell>
        <mxCell id="HjZwm3_lMUPSO9mRjGWS-124" style="shape=partialRectangle;html=1;whiteSpace=wrap;connectable=0;strokeColor=inherit;overflow=hidden;fillColor=none;top=0;left=0;bottom=0;right=0;pointerEvents=1;fontSize=16;" parent="HjZwm3_lMUPSO9mRjGWS-120" vertex="1">
          <mxGeometry x="160" width="90" height="20" as="geometry">
            <mxRectangle width="90" height="20" as="alternateBounds" />
          </mxGeometry>
        </mxCell>
        <mxCell id="HjZwm3_lMUPSO9mRjGWS-150" style="edgeStyle=orthogonalEdgeStyle;rounded=0;orthogonalLoop=1;jettySize=auto;html=1;exitX=0.5;exitY=0;exitDx=0;exitDy=0;entryX=0.43;entryY=1;entryDx=0;entryDy=0;entryPerimeter=0;" parent="1" source="HjZwm3_lMUPSO9mRjGWS-137" target="HjZwm3_lMUPSO9mRjGWS-95" edge="1">
          <mxGeometry relative="1" as="geometry">
            <Array as="points">
              <mxPoint x="-267" y="366" />
            </Array>
          </mxGeometry>
        </mxCell>
        <mxCell id="HjZwm3_lMUPSO9mRjGWS-137" value="resource" style="shape=table;startSize=30;container=1;collapsible=0;childLayout=tableLayout;strokeColor=default;fontSize=16;" parent="1" vertex="1">
          <mxGeometry x="-383" y="366" width="250" height="79" as="geometry" />
        </mxCell>
        <mxCell id="HjZwm3_lMUPSO9mRjGWS-138" value="" style="shape=tableRow;horizontal=0;startSize=0;swimlaneHead=0;swimlaneBody=0;strokeColor=inherit;top=0;left=0;bottom=0;right=0;collapsible=0;dropTarget=0;fillColor=none;points=[[0,0.5],[1,0.5]];portConstraint=eastwest;fontSize=16;" parent="HjZwm3_lMUPSO9mRjGWS-137" vertex="1">
          <mxGeometry y="30" width="250" height="29" as="geometry" />
        </mxCell>
        <mxCell id="HjZwm3_lMUPSO9mRjGWS-139" value="id" style="shape=partialRectangle;html=1;whiteSpace=wrap;connectable=0;strokeColor=inherit;overflow=hidden;fillColor=none;top=0;left=0;bottom=0;right=0;pointerEvents=1;fontSize=16;" parent="HjZwm3_lMUPSO9mRjGWS-138" vertex="1">
          <mxGeometry width="40" height="29" as="geometry">
            <mxRectangle width="40" height="29" as="alternateBounds" />
          </mxGeometry>
        </mxCell>
        <mxCell id="HjZwm3_lMUPSO9mRjGWS-140" value="&lt;div&gt;name&lt;/div&gt;" style="shape=partialRectangle;html=1;whiteSpace=wrap;connectable=0;strokeColor=inherit;overflow=hidden;fillColor=none;top=0;left=0;bottom=0;right=0;pointerEvents=1;fontSize=16;" parent="HjZwm3_lMUPSO9mRjGWS-138" vertex="1">
          <mxGeometry x="40" width="60" height="29" as="geometry">
            <mxRectangle width="60" height="29" as="alternateBounds" />
          </mxGeometry>
        </mxCell>
        <mxCell id="HjZwm3_lMUPSO9mRjGWS-141" value="label" style="shape=partialRectangle;html=1;whiteSpace=wrap;connectable=0;strokeColor=inherit;overflow=hidden;fillColor=none;top=0;left=0;bottom=0;right=0;pointerEvents=1;fontSize=16;" parent="HjZwm3_lMUPSO9mRjGWS-138" vertex="1">
          <mxGeometry x="100" width="60" height="29" as="geometry">
            <mxRectangle width="60" height="29" as="alternateBounds" />
          </mxGeometry>
        </mxCell>
        <mxCell id="HjZwm3_lMUPSO9mRjGWS-142" value="....." style="shape=partialRectangle;html=1;whiteSpace=wrap;connectable=0;strokeColor=inherit;overflow=hidden;fillColor=none;top=0;left=0;bottom=0;right=0;pointerEvents=1;fontSize=16;" parent="HjZwm3_lMUPSO9mRjGWS-138" vertex="1">
          <mxGeometry x="160" width="90" height="29" as="geometry">
            <mxRectangle width="90" height="29" as="alternateBounds" />
          </mxGeometry>
        </mxCell>
        <mxCell id="HjZwm3_lMUPSO9mRjGWS-143" value="" style="shape=tableRow;horizontal=0;startSize=0;swimlaneHead=0;swimlaneBody=0;strokeColor=inherit;top=0;left=0;bottom=0;right=0;collapsible=0;dropTarget=0;fillColor=none;points=[[0,0.5],[1,0.5]];portConstraint=eastwest;fontSize=16;" parent="HjZwm3_lMUPSO9mRjGWS-137" vertex="1">
          <mxGeometry y="59" width="250" height="20" as="geometry" />
        </mxCell>
        <mxCell id="HjZwm3_lMUPSO9mRjGWS-144" value="" style="shape=partialRectangle;html=1;whiteSpace=wrap;connectable=0;strokeColor=inherit;overflow=hidden;fillColor=none;top=0;left=0;bottom=0;right=0;pointerEvents=1;fontSize=16;" parent="HjZwm3_lMUPSO9mRjGWS-143" vertex="1">
          <mxGeometry width="40" height="20" as="geometry">
            <mxRectangle width="40" height="20" as="alternateBounds" />
          </mxGeometry>
        </mxCell>
        <mxCell id="HjZwm3_lMUPSO9mRjGWS-145" value="" style="shape=partialRectangle;html=1;whiteSpace=wrap;connectable=0;strokeColor=inherit;overflow=hidden;fillColor=none;top=0;left=0;bottom=0;right=0;pointerEvents=1;fontSize=16;" parent="HjZwm3_lMUPSO9mRjGWS-143" vertex="1">
          <mxGeometry x="40" width="60" height="20" as="geometry">
            <mxRectangle width="60" height="20" as="alternateBounds" />
          </mxGeometry>
        </mxCell>
        <mxCell id="HjZwm3_lMUPSO9mRjGWS-146" value="" style="shape=partialRectangle;html=1;whiteSpace=wrap;connectable=0;strokeColor=inherit;overflow=hidden;fillColor=none;top=0;left=0;bottom=0;right=0;pointerEvents=1;fontSize=16;" parent="HjZwm3_lMUPSO9mRjGWS-143" vertex="1">
          <mxGeometry x="100" width="60" height="20" as="geometry">
            <mxRectangle width="60" height="20" as="alternateBounds" />
          </mxGeometry>
        </mxCell>
        <mxCell id="HjZwm3_lMUPSO9mRjGWS-147" style="shape=partialRectangle;html=1;whiteSpace=wrap;connectable=0;strokeColor=inherit;overflow=hidden;fillColor=none;top=0;left=0;bottom=0;right=0;pointerEvents=1;fontSize=16;" parent="HjZwm3_lMUPSO9mRjGWS-143" vertex="1">
          <mxGeometry x="160" width="90" height="20" as="geometry">
            <mxRectangle width="90" height="20" as="alternateBounds" />
          </mxGeometry>
        </mxCell>
      </root>
    </mxGraphModel>
  </diagram>
</mxfile>
